<?xml version="1.0" encoding="utf-8"?>
<!-- Generator: Adobe Illustrator 28.0.0, SVG Export Plug-In . SVG Version: 6.00 Build 0)  -->
<svg version="1.1" id="Layer_1" xmlns="http://www.w3.org/2000/svg" xmlns:xlink="http://www.w3.org/1999/xlink" x="0px" y="0px"
	 viewBox="0 0 875.7 195" style="enable-background:new 0 0 875.7 195;" xml:space="preserve">
<style type="text/css">
	.st0{fill:#FFFFFF;}
	.st1{fill:#4481C2;}
</style>
<g id="Layer_2_00000039094466391105442420000015913254744893706131_">
	<g id="Layer_1-2">
		<path class="st0" d="M25.6,161.4v7h-8v26.1H10v-26.1H2v-7L25.6,161.4z"/>
		<path class="st0" d="M42.7,187.5h13.6v7H35.1v-33.1h20.8v7H42.7v6h9.8v6.9h-9.8V187.5z"/>
		<path class="st0" d="M90.1,191c-3.1,2.7-7.2,4.1-11.4,4c-4.6,0.1-9-1.6-12.3-4.8c-3.4-3.2-5.2-7.6-5.1-12.3
			c-0.2-4.6,1.7-9.1,5.1-12.2c3.3-3.2,7.7-4.9,12.3-4.8c4.1-0.1,8.1,1.3,11.2,3.9l-4.6,5.2c-1.8-1.3-3.9-2-6.1-2
			c-5.5,0-9.9,4.4-9.9,9.9c0,5.5,4.4,9.9,9.9,9.9l0,0l0,0c2.3,0,4.6-0.8,6.3-2.2L90.1,191z"/>
		<path class="st0" d="M119.5,161.4h7.6v33.1h-7.6v-13.1H107v13.1h-7.7v-33.1h7.7v13h12.6L119.5,161.4z"/>
		<path class="st0" d="M161.3,161.4v33.1h-7.6v-33.1H161.3z"/>
		<path class="st0" d="M171.7,194.5v-33.1h7.6l13.8,20.8h0.3v-20.8h7.6v33.1h-7.6l-13.8-20.8h-0.3v20.8L171.7,194.5z"/>
		<path class="st0" d="M211.5,194.5v-33.1h7.6l13.7,20.8h0.3v-20.8h7.7v33.1h-7.6l-13.8-20.8h-0.3v20.8L211.5,194.5z"/>
		<path class="st0" d="M267.8,160.9c4.5-0.1,8.9,1.6,12.2,4.8c6.7,6.8,6.7,17.7,0,24.5c-6.9,6.4-17.5,6.4-24.4,0
			c-6.7-6.8-6.7-17.7,0-24.5C258.8,162.5,263.2,160.8,267.8,160.9z M267.8,187.9c2.5,0.1,4.9-0.9,6.7-2.8c3.5-4.1,3.5-10.2,0-14.2
			c-3.6-3.7-9.6-3.7-13.2-0.1c0,0,0,0,0,0l-0.1,0.1c-1.8,1.9-2.7,4.5-2.6,7.1c-0.1,2.6,0.8,5.2,2.6,7.1
			C262.8,186.9,265.3,187.9,267.8,187.9L267.8,187.9z"/>
		<path class="st0" d="M313.2,161.4h8.1l-13.7,33.1h-7.7l-13.7-33.2h8.1l9.5,24L313.2,161.4z"/>
		<path class="st0" d="M343.5,194.5l-2.2-5.5h-14.6l-2.2,5.5h-8.1l13.7-33.2h7.7l13.7,33.1L343.5,194.5z M329.1,182.8h9.7l-4.9-12.2
			L329.1,182.8z"/>
		<path class="st0" d="M372.2,161.4v7h-8v26.1h-7.7v-26.1h-8.1v-7L372.2,161.4z"/>
		<path class="st0" d="M389.3,161.4v33.1h-7.6v-33.1H389.3z"/>
		<path class="st0" d="M416.2,160.9c4.5-0.1,8.9,1.6,12.2,4.8c6.7,6.8,6.7,17.7,0,24.5c-6.9,6.4-17.5,6.4-24.4,0
			c-6.7-6.8-6.7-17.7,0-24.5C407.3,162.5,411.7,160.8,416.2,160.9z M416.2,187.9c2.5,0.1,4.9-0.9,6.7-2.8c3.5-4.1,3.5-10.2,0-14.2
			c-3.6-3.7-9.6-3.7-13.2-0.1c0,0,0,0,0,0l-0.1,0.1c-1.8,1.9-2.7,4.5-2.6,7.1c-0.1,2.6,0.8,5.2,2.6,7.1
			C411.3,187,413.8,187.9,416.2,187.9L416.2,187.9z"/>
		<path class="st0" d="M443.2,194.5v-33.1h7.6l13.8,20.8h0.4v-20.8h7.6v33.1H465l-13.8-20.8h-0.3v20.8L443.2,194.5z"/>
		<path class="st0" d="M536,161.4v33.1h-7.6V176h-0.2l-7.8,18.5h-5.5L507,176h-0.2v18.5h-7.6v-33.2h8.3l10.1,23.4l10.1-23.4H536z"/>
		<path class="st0" d="M571.5,194.5l-2.2-5.5h-14.6l-2.2,5.5h-8.1l13.7-33.2h7.7l13.7,33.1L571.5,194.5z M557.2,182.8h9.6l-4.9-12.2
			L557.2,182.8z"/>
		<path class="st0" d="M588.2,194.5v-33.1h7.7l13.8,20.8h0.4v-20.8h7.6v33.1H610l-13.8-20.8h-0.3v20.8H588.2z"/>
		<path class="st0" d="M653.1,194.5l-2.2-5.5h-14.6l-2.2,5.5h-8.1l13.8-33.1h7.7l13.7,33.1H653.1z M638.8,182.8h9.7l-4.8-12.2
			L638.8,182.8z"/>
		<path class="st0" d="M694.2,176.2c1.8,11.6-5.6,18.8-14.6,18.8c-4.6,0.1-9-1.6-12.3-4.8c-3.3-3.2-5.1-7.7-5-12.3
			c-0.2-4.6,1.7-9.1,5-12.2c3.3-3.2,7.7-4.9,12.2-4.8c4.1-0.1,8.1,1.3,11.3,3.9l-4.6,5.2c-1.8-1.3-4-1.9-6.2-1.9
			c-2.6-0.1-5.2,0.9-7,2.8c-1.8,1.9-2.8,4.5-2.7,7.1c-0.1,2.6,0.8,5.2,2.6,7.1c1.8,1.8,4.3,2.8,6.8,2.8c4.3,0,6.8-1.8,7.6-5.3h-7.5
			v-6.3L694.2,176.2z"/>
		<path class="st0" d="M711.7,187.5h13.6v7h-21.2v-33.1h20.8v7h-13.1v6h9.8v6.9h-9.8V187.5z"/>
		<path class="st0" d="M771.8,161.4v33.1h-7.6V176H764l-7.8,18.5h-5.5l-7.8-18.5h-0.2v18.5H735v-33.1h8.3l10.1,23.4l10.1-23.4H771.8
			z"/>
		<path class="st0" d="M789.8,187.5h13.6v7h-21.2v-33.1H803v7h-13.2v6h9.8v6.9h-9.8V187.5z"/>
		<path class="st0" d="M813.2,194.5v-33.1h7.6l13.8,20.8h0.3v-20.8h7.6v33.1h-7.6l-13.8-20.8h-0.3v20.8L813.2,194.5z"/>
		<path class="st0" d="M875.7,161.4v7h-8v26.1h-7.6v-26.1h-8v-7L875.7,161.4z"/>
	</g>
</g>
<g>
	<path class="st1" d="M64.1,54.6V77h26.6c-2.9,12.6-11.8,18.9-27.1,18.9c-9.9,0-18.2-3.2-24.2-9.8c-6.1-6.6-9.1-15.2-9.1-25.4
		c0-10.3,3.2-18.7,9.6-25.3c6.4-6.6,14.8-9.9,25.1-9.9c7.8,0,15.5,2.4,21.9,6.9L103.1,14C92.4,4.7,79,0,63.2,0
		c-17,0-31.5,5.9-43.4,17.2S2,42.9,2,60.6s5.9,32.2,17.6,43.6c12,11.3,26.4,17,43.6,17c32.1,0,58.2-25.2,52-66.7H64.1z"/>
	<path class="st1" d="M217.1,42.3c0-12.3-4-22.1-12.1-29.5c-7.9-7.4-18.5-11.1-31.8-11.1h-41.9v117.9h27.1V81h14.5l24,38.5h28.6
		l-28.3-43.8C209.9,69.7,217.1,57.8,217.1,42.3z M171.5,57.9h-13.1V26.6h13.1c12.3,0,18.5,5.2,18.5,15.7S183.8,57.9,171.5,57.9z"/>
	<path class="st1" d="M332.7,17c-12-11.3-26.4-17-43.4-17c-17,0-31.5,5.7-43.5,17c-12,11.3-17.8,25.9-17.8,43.6s5.9,32.3,17.8,43.6
		c12,11.3,26.5,17,43.5,17s31.5-5.7,43.4-17c12-11.3,17.8-25.9,17.8-43.6S344.6,28.3,332.7,17z M313,86.1
		c-6.2,6.6-14.1,9.8-23.7,9.8c-9.6,0-17.5-3.2-23.8-9.8s-9.3-15.2-9.3-25.4s3-18.7,9.3-25.3s14.2-9.9,23.8-9.9s17.5,3.4,23.7,9.9
		s9.4,15,9.4,25.3S319.2,79.5,313,86.1z"/>
	<path class="st1" d="M432.4,75.8c0,14.6-8.7,20-19,20s-19.2-5.3-19.2-20V1.7h-27.1v73.9c0,14.1,4.4,25.2,13.1,33.5
		c8.9,8.1,19.9,12.1,33.2,12.1s24.2-4,33-12.1c8.8-8.2,13.1-19.4,13.1-33.5V1.7h-27.1L432.4,75.8z"/>
	<path class="st1" d="M551.6,12.8c-7.9-7.4-18.5-11.1-31.8-11.1h-41.9v117.9h27.1V81h14.8c13.3,0,24-3.4,32-10.3
		c8-6.9,12-16.5,12-28.5C563.7,30,559.7,20.2,551.6,12.8z M518.1,57.9h-13.1V26.6h13.1c12.3,0,18.5,5.2,18.5,15.7
		S530.4,57.9,518.1,57.9z"/>
</g>
<g>
	<rect x="697.9" y="0" class="st0" width="27.9" height="121.2"/>
	<polygon class="st0" points="596,25.6 625.5,25.6 625.5,121.2 653.3,121.2 653.3,25.6 682.8,25.6 682.8,0 596,0 	"/>
	<polygon class="st0" points="845.2,0 808.4,85.7 771.5,0 741,0 741,121.2 768.9,121.2 768.9,53.5 769.7,53.5 798.3,121.2 
		818.4,121.2 847,53.5 847.9,53.5 847.9,121.2 875.7,121.2 875.7,0 	"/>
</g>
</svg>
